<svg aria-hidden="true" style="width:0;height:0;position:absolute;overflow:hidden" xmlns="http://www.w3.org/2000/svg"><defs><symbol id="Vector" viewBox="0 0 22 32"><path d="M.711 1.188a3.2 3.2 0 0 1 4.5-.477l15.835 12.8a3.199 3.199 0 0 1 0 4.978l-15.835 12.8a3.2 3.2 0 1 1-4.023-4.977l12.756-10.311L1.188 5.69a3.2 3.2 0 0 1-.477-4.5z"/></symbol><symbol id="close" viewBox="0 0 32 32"><path d="M32 3.223 28.777 0 16 12.777 3.223 0 0 3.223 12.777 16 0 28.777 3.223 32 16 19.223 28.777 32 32 28.777 19.223 16 32 3.223z"/></symbol></defs></svg>